<mxfile host="app.diagrams.net" modified="2023-12-01T16:09:27.711Z" agent="Mozilla/5.0 (Windows NT 10.0; Win64; x64) AppleWebKit/537.36 (KHTML, like Gecko) Chrome/116.0.5845.686 YaBrowser/23.9.5.686 Yowser/2.5 Safari/537.36" etag="5gOZrt2Dadt9byXHhCMg" version="22.1.5" type="github">
  <diagram name="Страница — 1" id="C_sGMyFnlWvZYpv4OTZl">
    <mxGraphModel dx="2906" dy="1161" grid="1" gridSize="10" guides="1" tooltips="1" connect="1" arrows="1" fold="1" page="1" pageScale="1" pageWidth="827" pageHeight="1169" math="0" shadow="0">
      <root>
        <mxCell id="0" />
        <mxCell id="1" parent="0" />
        <mxCell id="ezo1uKIcZUBa7nDMjUo9-1" value="Клиент фирмы" style="shape=umlActor;verticalLabelPosition=bottom;verticalAlign=top;html=1;outlineConnect=0;" parent="1" vertex="1">
          <mxGeometry x="30" y="180" width="30" height="60" as="geometry" />
        </mxCell>
        <mxCell id="ezo1uKIcZUBa7nDMjUo9-2" value="Менеджер по&lt;br&gt;работе с &lt;br&gt;клиентами" style="shape=umlActor;verticalLabelPosition=bottom;verticalAlign=top;html=1;outlineConnect=0;" parent="1" vertex="1">
          <mxGeometry x="746" y="180" width="30" height="60" as="geometry" />
        </mxCell>
        <mxCell id="ezo1uKIcZUBa7nDMjUo9-6" value="Предоставление общих данных" style="ellipse;whiteSpace=wrap;html=1;" parent="1" vertex="1">
          <mxGeometry x="130" y="180" width="120" height="80" as="geometry" />
        </mxCell>
        <mxCell id="ezo1uKIcZUBa7nDMjUo9-7" value="Выбор оптимальной путевки" style="ellipse;whiteSpace=wrap;html=1;" parent="1" vertex="1">
          <mxGeometry x="130" y="290" width="120" height="80" as="geometry" />
        </mxCell>
        <mxCell id="ezo1uKIcZUBa7nDMjUo9-8" value="Регистрация факта покупки путевки" style="ellipse;whiteSpace=wrap;html=1;" parent="1" vertex="1">
          <mxGeometry x="130" y="400" width="120" height="80" as="geometry" />
        </mxCell>
        <mxCell id="ezo1uKIcZUBa7nDMjUo9-9" value="Консультирование клиента&amp;nbsp;" style="ellipse;whiteSpace=wrap;html=1;" parent="1" vertex="1">
          <mxGeometry x="550" y="180" width="120" height="80" as="geometry" />
        </mxCell>
        <mxCell id="ezo1uKIcZUBa7nDMjUo9-29" style="edgeStyle=orthogonalEdgeStyle;rounded=0;orthogonalLoop=1;jettySize=auto;html=1;entryX=1;entryY=0.5;entryDx=0;entryDy=0;" parent="1" target="ezo1uKIcZUBa7nDMjUo9-10" edge="1">
          <mxGeometry relative="1" as="geometry">
            <mxPoint x="670" y="330" as="targetPoint" />
            <mxPoint x="706" y="210" as="sourcePoint" />
            <Array as="points">
              <mxPoint x="706" y="330" />
            </Array>
          </mxGeometry>
        </mxCell>
        <mxCell id="ezo1uKIcZUBa7nDMjUo9-10" value="Демонстрация различных вариантов стран" style="ellipse;whiteSpace=wrap;html=1;" parent="1" vertex="1">
          <mxGeometry x="550" y="290" width="116" height="80" as="geometry" />
        </mxCell>
        <mxCell id="ezo1uKIcZUBa7nDMjUo9-30" style="edgeStyle=orthogonalEdgeStyle;rounded=0;orthogonalLoop=1;jettySize=auto;html=1;entryX=1;entryY=0.5;entryDx=0;entryDy=0;" parent="1" target="ezo1uKIcZUBa7nDMjUo9-11" edge="1">
          <mxGeometry relative="1" as="geometry">
            <mxPoint x="671" y="439" as="targetPoint" />
            <mxPoint x="706" y="330" as="sourcePoint" />
            <Array as="points">
              <mxPoint x="706" y="440" />
            </Array>
          </mxGeometry>
        </mxCell>
        <mxCell id="ezo1uKIcZUBa7nDMjUo9-11" value="Демонстрация различных вариантов климата" style="ellipse;whiteSpace=wrap;html=1;" parent="1" vertex="1">
          <mxGeometry x="550" y="400" width="120" height="80" as="geometry" />
        </mxCell>
        <mxCell id="ezo1uKIcZUBa7nDMjUo9-15" style="edgeStyle=orthogonalEdgeStyle;rounded=0;orthogonalLoop=1;jettySize=auto;html=1;exitX=0.5;exitY=0.5;exitDx=0;exitDy=0;exitPerimeter=0;entryX=0.023;entryY=0.376;entryDx=0;entryDy=0;entryPerimeter=0;" parent="1" source="ezo1uKIcZUBa7nDMjUo9-1" target="ezo1uKIcZUBa7nDMjUo9-6" edge="1">
          <mxGeometry relative="1" as="geometry">
            <mxPoint x="120" y="210" as="targetPoint" />
            <Array as="points">
              <mxPoint x="90" y="210" />
            </Array>
          </mxGeometry>
        </mxCell>
        <mxCell id="ezo1uKIcZUBa7nDMjUo9-17" style="edgeStyle=orthogonalEdgeStyle;rounded=0;orthogonalLoop=1;jettySize=auto;html=1;exitX=0.5;exitY=0.5;exitDx=0;exitDy=0;exitPerimeter=0;entryX=0.994;entryY=0.376;entryDx=0;entryDy=0;entryPerimeter=0;" parent="1" edge="1">
          <mxGeometry relative="1" as="geometry">
            <mxPoint x="761.72" y="209.86" as="sourcePoint" />
            <mxPoint x="670.0000000000002" y="209.93999999999994" as="targetPoint" />
          </mxGeometry>
        </mxCell>
        <mxCell id="ezo1uKIcZUBa7nDMjUo9-18" value="" style="endArrow=classic;html=1;rounded=0;" parent="1" edge="1">
          <mxGeometry width="50" height="50" relative="1" as="geometry">
            <mxPoint x="100" y="330" as="sourcePoint" />
            <mxPoint x="130" y="329.97" as="targetPoint" />
          </mxGeometry>
        </mxCell>
        <mxCell id="ezo1uKIcZUBa7nDMjUo9-19" value="" style="endArrow=none;html=1;rounded=0;" parent="1" edge="1">
          <mxGeometry width="50" height="50" relative="1" as="geometry">
            <mxPoint x="100" y="330" as="sourcePoint" />
            <mxPoint x="100" y="210" as="targetPoint" />
            <Array as="points">
              <mxPoint x="100" y="300" />
            </Array>
          </mxGeometry>
        </mxCell>
        <mxCell id="ezo1uKIcZUBa7nDMjUo9-22" value="" style="endArrow=classic;html=1;rounded=0;entryX=0.016;entryY=0.628;entryDx=0;entryDy=0;entryPerimeter=0;" parent="1" edge="1">
          <mxGeometry width="50" height="50" relative="1" as="geometry">
            <mxPoint x="100" y="440" as="sourcePoint" />
            <mxPoint x="130.00000000000003" y="440.12" as="targetPoint" />
            <Array as="points" />
          </mxGeometry>
        </mxCell>
        <mxCell id="ezo1uKIcZUBa7nDMjUo9-23" value="" style="endArrow=none;html=1;rounded=0;" parent="1" edge="1">
          <mxGeometry width="50" height="50" relative="1" as="geometry">
            <mxPoint x="100" y="440" as="sourcePoint" />
            <mxPoint x="100" y="330" as="targetPoint" />
            <Array as="points">
              <mxPoint x="100" y="390" />
            </Array>
          </mxGeometry>
        </mxCell>
        <mxCell id="ezo1uKIcZUBa7nDMjUo9-24" value="Демонстрация различных вариантов отелей" style="ellipse;whiteSpace=wrap;html=1;" parent="1" vertex="1">
          <mxGeometry x="550" y="510" width="120" height="80" as="geometry" />
        </mxCell>
        <mxCell id="ezo1uKIcZUBa7nDMjUo9-25" value="Обсуждения длительности пребывания" style="ellipse;whiteSpace=wrap;html=1;" parent="1" vertex="1">
          <mxGeometry x="550" y="620" width="120" height="80" as="geometry" />
        </mxCell>
        <mxCell id="ezo1uKIcZUBa7nDMjUo9-26" value="Регистрация факта продажи путевки(путевок) в случае успеха" style="ellipse;whiteSpace=wrap;html=1;" parent="1" vertex="1">
          <mxGeometry x="130" y="620" width="120" height="80" as="geometry" />
        </mxCell>
        <mxCell id="ezo1uKIcZUBa7nDMjUo9-27" value="Расчет скидки(в случае ее наличия)" style="ellipse;whiteSpace=wrap;html=1;" parent="1" vertex="1">
          <mxGeometry x="130" y="730" width="120" height="80" as="geometry" />
        </mxCell>
        <mxCell id="ezo1uKIcZUBa7nDMjUo9-28" value="Расчет конечной цены за путевку" style="ellipse;whiteSpace=wrap;html=1;" parent="1" vertex="1">
          <mxGeometry x="130" y="830" width="120" height="80" as="geometry" />
        </mxCell>
        <mxCell id="ezo1uKIcZUBa7nDMjUo9-31" style="edgeStyle=orthogonalEdgeStyle;rounded=0;orthogonalLoop=1;jettySize=auto;html=1;entryX=1;entryY=0.5;entryDx=0;entryDy=0;" parent="1" edge="1">
          <mxGeometry relative="1" as="geometry">
            <mxPoint x="670" y="550" as="targetPoint" />
            <mxPoint x="706" y="440" as="sourcePoint" />
            <Array as="points">
              <mxPoint x="706" y="550" />
            </Array>
          </mxGeometry>
        </mxCell>
        <mxCell id="ezo1uKIcZUBa7nDMjUo9-32" style="edgeStyle=orthogonalEdgeStyle;rounded=0;orthogonalLoop=1;jettySize=auto;html=1;entryX=1;entryY=0.5;entryDx=0;entryDy=0;" parent="1" edge="1">
          <mxGeometry relative="1" as="geometry">
            <mxPoint x="670" y="660" as="targetPoint" />
            <mxPoint x="706" y="550" as="sourcePoint" />
            <Array as="points">
              <mxPoint x="706" y="660" />
            </Array>
          </mxGeometry>
        </mxCell>
        <mxCell id="ezo1uKIcZUBa7nDMjUo9-33" style="edgeStyle=orthogonalEdgeStyle;rounded=0;orthogonalLoop=1;jettySize=auto;html=1;" parent="1" edge="1">
          <mxGeometry relative="1" as="geometry">
            <mxPoint x="130" y="760" as="targetPoint" />
            <mxPoint x="86" y="650" as="sourcePoint" />
            <Array as="points">
              <mxPoint x="86" y="760" />
            </Array>
          </mxGeometry>
        </mxCell>
        <mxCell id="ezo1uKIcZUBa7nDMjUo9-34" style="edgeStyle=orthogonalEdgeStyle;rounded=0;orthogonalLoop=1;jettySize=auto;html=1;entryX=0;entryY=0.5;entryDx=0;entryDy=0;" parent="1" edge="1" target="ezo1uKIcZUBa7nDMjUo9-28">
          <mxGeometry relative="1" as="geometry">
            <mxPoint x="50" y="870" as="targetPoint" />
            <mxPoint x="86" y="760" as="sourcePoint" />
            <Array as="points">
              <mxPoint x="86" y="870" />
            </Array>
          </mxGeometry>
        </mxCell>
        <mxCell id="LzQifozW5vk0cQuSek3g-1" value="Менеджер по&amp;nbsp;&lt;br&gt;туризму" style="shape=umlActor;verticalLabelPosition=bottom;verticalAlign=top;html=1;outlineConnect=0;" vertex="1" parent="1">
          <mxGeometry x="30" y="620" width="30" height="60" as="geometry" />
        </mxCell>
        <mxCell id="LzQifozW5vk0cQuSek3g-3" style="edgeStyle=orthogonalEdgeStyle;rounded=0;orthogonalLoop=1;jettySize=auto;html=1;exitX=0.5;exitY=0.5;exitDx=0;exitDy=0;exitPerimeter=0;entryX=0;entryY=0.379;entryDx=0;entryDy=0;entryPerimeter=0;" edge="1" parent="1" source="LzQifozW5vk0cQuSek3g-1" target="ezo1uKIcZUBa7nDMjUo9-26">
          <mxGeometry relative="1" as="geometry" />
        </mxCell>
      </root>
    </mxGraphModel>
  </diagram>
</mxfile>
